 http://www.imdb.com/title/tt0261392/

Source: Jay.And.Silent.Bob.Strike.Back.2001.1080p.BluRay.x264-HDMI Thanks!

Subs: Arabic, Bulgarian, Danish, Dutch, English, German, Indonesian, Romanian, Servian, Slovenian, Spanish and Swedish.

Sample and Screens included.

General
Complete name                            : Jay and Silent Bob Strike Back-720p MP4 AAC x264 BRRip 2001-CC.mp4
Format                                   : MPEG-4
Format profile                           : Base Media
Codec ID                                 : isom
File size                                : 2.80 GiB
Duration                                 : 1h 44mn
Overall bit rate mode                    : Variable
Overall bit rate                         : 3 840 Kbps
Encoded date                             : UTC 2012-11-06 16:37:25

Video
ID                                       : 1
Format                                   : AVC
Format/Info                              : Advanced Video Codec
Format profile                           : High@L4.1
Format settings, CABAC                   : Yes
Format settings, ReFrames                : 5 frames
Codec ID                                 : avc1
Codec ID/Info                            : Advanced Video Coding
Duration                                 : 1h 44mn
Bit rate                                 : 3 507 Kbps
Maximum bit rate                         : 17.7 Mbps
Width                                    : 1 280 pixels
Height                                   : 544 pixels
Display aspect ratio                     : 2.35:1
Frame rate mode                          : Variable
Frame rate                               : 23.976 fps
Minimum frame rate                       : 23.810 fps
Maximum frame rate                       : 24.390 fps
Color space                              : YUV
Chroma subsampling                       : 4:2:0
Bit depth                                : 8 bits
Scan type                                : Progressive
Bits/(Pixel*Frame)                       : 0.210
Stream size                              : 2.52 GiB (90%)
Writing library                          : x264 core 112

Audio
ID                                       : 2
Format                                   : AAC
Format/Info                              : Advanced Audio Codec
Format profile                           : LC
Codec ID                                 : 40
Duration                                 : 1h 44mn
Bit rate mode                            : Variable
Bit rate                                 : 384 Kbps
Maximum bit rate                         : 739 Kbps
Channel(s)                               : 6 channels
Channel positions                        : Front: L C R, Side: L R, LFE
Sampling rate                            : 48.0 KHz
Compression mode                         : Lossy
Delay relative to video                  : 83ms
Stream size                              : 287 MiB (10%)
Language                                 : English

Enjoy...

Requested by Alorati

Coming soon: Donnie Brasco, The Gold Rush, Buffalo 66, The Polar Express and more...